<mxfile host="app.diagrams.net" agent="Mozilla/5.0 (Windows NT 10.0; Win64; x64) AppleWebKit/537.36 (KHTML, like Gecko) Chrome/129.0.0.0 Safari/537.36" version="24.7.17">
  <diagram id="C5RBs43oDa-KdzZeNtuy" name="Class and State Machine Diagrams">
    <mxGraphModel dx="2014" dy="469" grid="1" gridSize="10" guides="1" tooltips="1" connect="1" arrows="1" fold="1" page="1" pageScale="1" pageWidth="827" pageHeight="1169" math="0" shadow="0">
      <root>
        <mxCell id="WIyWlLk6GJQsqaUBKTNV-0" />
        <mxCell id="WIyWlLk6GJQsqaUBKTNV-1" parent="WIyWlLk6GJQsqaUBKTNV-0" />
        <mxCell id="tw4hOTy_znIjdhT4LAQi-53" value="Red Light (State 0)" style="ellipse;whiteSpace=wrap;html=1;" vertex="1" parent="WIyWlLk6GJQsqaUBKTNV-1">
          <mxGeometry x="-200" y="180" width="120" height="80" as="geometry" />
        </mxCell>
        <mxCell id="tw4hOTy_znIjdhT4LAQi-54" value="Red → Yellow (State 1)" style="ellipse;whiteSpace=wrap;html=1;" vertex="1" parent="WIyWlLk6GJQsqaUBKTNV-1">
          <mxGeometry x="40" y="180" width="120" height="80" as="geometry" />
        </mxCell>
        <mxCell id="tw4hOTy_znIjdhT4LAQi-55" value="Green (State 2)" style="ellipse;whiteSpace=wrap;html=1;" vertex="1" parent="WIyWlLk6GJQsqaUBKTNV-1">
          <mxGeometry x="40" y="370" width="120" height="80" as="geometry" />
        </mxCell>
        <mxCell id="tw4hOTy_znIjdhT4LAQi-56" value="Green → Yellow (State 3)" style="ellipse;whiteSpace=wrap;html=1;" vertex="1" parent="WIyWlLk6GJQsqaUBKTNV-1">
          <mxGeometry x="-200" y="380" width="120" height="80" as="geometry" />
        </mxCell>
        <mxCell id="tw4hOTy_znIjdhT4LAQi-57" style="edgeStyle=orthogonalEdgeStyle;rounded=0;orthogonalLoop=1;jettySize=auto;html=1;exitX=0.5;exitY=1;exitDx=0;exitDy=0;entryX=0.5;entryY=0;entryDx=0;entryDy=0;" edge="1" parent="WIyWlLk6GJQsqaUBKTNV-1" source="tw4hOTy_znIjdhT4LAQi-53" target="tw4hOTy_znIjdhT4LAQi-54">
          <mxGeometry relative="1" as="geometry" />
        </mxCell>
        <mxCell id="tw4hOTy_znIjdhT4LAQi-58" style="edgeStyle=orthogonalEdgeStyle;rounded=0;orthogonalLoop=1;jettySize=auto;html=1;exitX=0.5;exitY=1;exitDx=0;exitDy=0;entryX=0.5;entryY=0;entryDx=0;entryDy=0;" edge="1" parent="WIyWlLk6GJQsqaUBKTNV-1" source="tw4hOTy_znIjdhT4LAQi-54" target="tw4hOTy_znIjdhT4LAQi-55">
          <mxGeometry relative="1" as="geometry" />
        </mxCell>
        <mxCell id="tw4hOTy_znIjdhT4LAQi-59" style="edgeStyle=orthogonalEdgeStyle;rounded=0;orthogonalLoop=1;jettySize=auto;html=1;exitX=0.5;exitY=1;exitDx=0;exitDy=0;entryX=0.5;entryY=0;entryDx=0;entryDy=0;" edge="1" parent="WIyWlLk6GJQsqaUBKTNV-1" source="tw4hOTy_znIjdhT4LAQi-55" target="tw4hOTy_znIjdhT4LAQi-56">
          <mxGeometry relative="1" as="geometry" />
        </mxCell>
        <mxCell id="tw4hOTy_znIjdhT4LAQi-60" style="edgeStyle=orthogonalEdgeStyle;rounded=0;orthogonalLoop=1;jettySize=auto;html=1;exitX=0.5;exitY=1;exitDx=0;exitDy=0;entryX=0.5;entryY=0;entryDx=0;entryDy=0;" edge="1" parent="WIyWlLk6GJQsqaUBKTNV-1" source="tw4hOTy_znIjdhT4LAQi-56" target="tw4hOTy_znIjdhT4LAQi-53">
          <mxGeometry relative="1" as="geometry" />
        </mxCell>
        <mxCell id="tw4hOTy_znIjdhT4LAQi-76" value="" style="rounded=0;whiteSpace=wrap;html=1;" vertex="1" parent="WIyWlLk6GJQsqaUBKTNV-1">
          <mxGeometry x="250" y="200" width="180" height="210" as="geometry" />
        </mxCell>
        <mxCell id="tw4hOTy_znIjdhT4LAQi-80" value="" style="line;strokeWidth=1;rotatable=0;dashed=0;labelPosition=right;align=left;verticalAlign=middle;spacingTop=0;spacingLeft=6;points=[];portConstraint=eastwest;" vertex="1" parent="WIyWlLk6GJQsqaUBKTNV-1">
          <mxGeometry x="250" y="220" width="180" height="10" as="geometry" />
        </mxCell>
        <mxCell id="tw4hOTy_znIjdhT4LAQi-81" value="TrafficLightSystem&#xa;&#xa;- redLed: int&#xa;- yellowLed: int&#xa;- greenLed: int&#xa;- t_red: long&#xa;- t_yellow: long&#xa;- t_green : long&#xa;- currentState: int&#xa;- previousMillis : long&#xa;&#xa;+ setup(): void&#xa;+ loop(): void" style="text;whiteSpace=wrap;html=1;" vertex="1" parent="WIyWlLk6GJQsqaUBKTNV-1">
          <mxGeometry x="255" y="200" width="150" height="210" as="geometry" />
        </mxCell>
        <mxCell id="tw4hOTy_znIjdhT4LAQi-82" value="" style="line;strokeWidth=1;rotatable=0;dashed=0;labelPosition=right;align=left;verticalAlign=middle;spacingTop=0;spacingLeft=6;points=[];portConstraint=eastwest;" vertex="1" parent="WIyWlLk6GJQsqaUBKTNV-1">
          <mxGeometry x="250" y="350" width="180" height="10" as="geometry" />
        </mxCell>
      </root>
    </mxGraphModel>
  </diagram>
</mxfile>
